<?xml version="1.0" encoding="UTF-8" standalone="no"?>
<!DOCTYPE svg PUBLIC "-//W3C//DTD SVG 1.1//EN" "http://www.w3.org/Graphics/SVG/1.1/DTD/svg11.dtd">
<svg width="100%" height="100%" viewBox="0 0 123 1080" version="1.1" xmlns="http://www.w3.org/2000/svg" xmlns:xlink="http://www.w3.org/1999/xlink" xml:space="preserve" xmlns:serif="http://www.serif.com/" style="fill-rule:evenodd;clip-rule:evenodd;stroke-linejoin:round;stroke-miterlimit:2;">
    <rect x="0" y="0" width="123" height="1080" style="fill:rgb(1,2,2);"/>
    <g>
        <rect x="122" y="0" width="1" height="1080" style="fill:rgb(38,38,38);"/>
    </g>
    <g>
        <rect x="0" y="122" width="122.5" height="1" style="fill:rgb(38,38,38);"/>
    </g>
    <g id="logo-RG.svg" transform="matrix(0.0684341,0,0,0.0684341,61.5955,62.4006)">
        <g transform="matrix(1,0,0,1,-198.5,-260)">
            <g>
                <path d="M225.519,376.474L387.771,520L0,520L0,0L207.381,0C257.431,0 305.5,19.902 340.879,55.312C376.288,90.69 396.19,138.76 396.19,188.81C396.221,204.069 394.333,219.267 390.557,234.031C387.029,247.619 381.86,260.681 375.143,272.969C368.767,284.607 361.152,295.533 352.424,305.531C344.036,315.126 334.781,323.917 324.783,331.779C306.429,346.326 285.938,357.933 264.024,366.229C254.707,369.819 245.112,372.667 235.331,374.771C232.081,375.452 228.831,376.01 225.519,376.474ZM55.714,55.714L231.617,55.714L102.421,173.148L176.274,245.638L241.924,185.745L198.405,145.476L275.476,145.476L275.476,287.857L55.714,287.857L55.714,55.714Z" style="fill:rgb(129,129,129);"/>
            </g>
        </g>
    </g>
    <path d="M69.8,1014.1C69.5,1013.8 68.9,1013.8 68.6,1014.1L62.6,1019.3L56.6,1014.1C56.3,1013.8 55.7,1013.8 55.4,1014.1C55.2,1014.2 55.1,1014.4 55.1,1014.6C55.1,1014.8 55.2,1015 55.4,1015.1L62,1020.8C62.2,1020.9 62.4,1021 62.6,1021C62.8,1021 63.1,1020.9 63.2,1020.8L69.8,1015.1C70.1,1014.9 70.1,1014.4 69.8,1014.1Z" style="fill:rgb(84,84,87);"/>
    <path d="M69.8,1007.1C69.5,1006.8 68.9,1006.8 68.6,1007.1L62.6,1012.3L56.6,1007.1C56.3,1006.8 55.7,1006.8 55.4,1007.1C55.2,1007.2 55.1,1007.4 55.1,1007.6C55.1,1007.8 55.2,1008 55.4,1008.1L62,1013.8C62.2,1013.9 62.4,1014 62.6,1014C62.8,1014 63.1,1013.9 63.2,1013.8L69.8,1008.1C70.1,1007.9 70.1,1007.4 69.8,1007.1Z" style="fill:rgb(44,44,46);"/>
    <path d="M69.8,1000.2C69.5,999.9 68.9,999.9 68.6,1000.2L62.6,1005.4L56.6,1000.2C56.3,999.9 55.7,999.9 55.4,1000.2C55.2,1000.3 55.1,1000.5 55.1,1000.7C55.1,1000.9 55.2,1001.1 55.4,1001.2L62,1006.9C62.2,1007 62.4,1007.1 62.6,1007.1C62.8,1007.1 63.1,1007 63.2,1006.9L69.8,1001.2C70.1,1001 70.1,1000.5 69.8,1000.2Z" style="fill:rgb(31,31,32);"/>
    <g>
        <g>
            <path d="M69.4,810.9L68.7,810.9C68.5,810.9 68.3,810.7 68.2,810.5C68.1,810 67.8,809.5 67.6,809C67.5,808.8 67.5,808.6 67.7,808.4L68.2,807.9C68.4,807.7 68.4,807.3 68.2,807.1L67.4,806.3C67.2,806.1 66.8,806.1 66.6,806.3L66.1,806.8C66,806.9 65.7,807 65.5,806.9C65,806.6 64.5,806.4 64,806.3C63.8,806.2 63.6,806 63.6,805.8L63.6,805.1C63.6,804.8 63.3,804.5 63,804.5L61.9,804.5C61.6,804.5 61.3,804.8 61.3,805.1L61.3,805.8C61.3,806 61.1,806.2 60.9,806.3C60.4,806.4 59.9,806.7 59.4,806.9C59.2,807 59,807 58.8,806.8L58.3,806.3C58.1,806.1 57.7,806.1 57.5,806.3L56.7,807.1C56.5,807.3 56.5,807.7 56.7,807.9L57.2,808.4C57.4,808.6 57.4,808.8 57.3,809C57,809.5 56.8,810 56.7,810.5C56.6,810.7 56.4,810.9 56.2,810.9L55.5,810.9C55.2,810.9 54.9,811.2 54.9,811.5L54.9,812.6C54.9,812.9 55.2,813.2 55.5,813.2L56.2,813.2C56.4,813.2 56.6,813.4 56.7,813.6C56.8,814.1 57.1,814.6 57.3,815.1C57.4,815.3 57.4,815.5 57.2,815.7L56.7,816.2C56.5,816.4 56.5,816.8 56.7,817L57.5,817.8C57.7,818 58.1,818 58.3,817.8L58.8,817.3C59,817.1 59.2,817.1 59.4,817.2C59.9,817.5 60.4,817.7 60.9,817.8C61.1,817.9 61.3,818.1 61.3,818.3L61.3,819C61.3,819.3 61.6,819.6 61.9,819.6L63,819.6C63.3,819.6 63.6,819.3 63.6,819L63.6,818.3C63.6,818.1 63.8,817.9 64,817.8C64.5,817.7 65,817.4 65.5,817.2C65.7,817.1 65.9,817.1 66.1,817.3L66.6,817.8C66.8,818 67.2,818 67.4,817.8L68.2,817C68.4,816.8 68.4,816.4 68.2,816.2L67.7,815.7C67.5,815.5 67.5,815.3 67.6,815.1C67.9,814.6 68.1,814.1 68.2,813.6C68.3,813.4 68.5,813.2 68.7,813.2L69.4,813.2C69.7,813.2 70,812.9 70,812.6L70,811.5C69.9,811.2 69.7,810.9 69.4,810.9ZM62.4,815.7C60.4,815.7 58.7,814 58.7,812C58.7,810 60.4,808.3 62.4,808.3C64.4,808.3 66.1,810 66.1,812C66.1,814.1 64.5,815.7 62.4,815.7ZM62.6,852.2C62.8,852 62.9,851.8 62.9,851.5L62.9,846.5C62.9,846.2 62.8,846 62.6,845.8C62.4,845.6 62.2,845.5 61.9,845.5C61.6,845.5 61.4,845.6 61.2,845.8C61,846 60.9,846.2 60.9,846.5L60.9,851.5C60.9,851.8 61,852 61.2,852.2C61.4,852.4 61.6,852.5 61.9,852.5C62.2,852.5 62.4,852.4 62.6,852.2ZM65.5,847.7C65.3,847.5 65,847.5 64.8,847.5C64.5,847.5 64.3,847.7 64.1,847.9C63.9,848.1 63.9,848.4 63.9,848.6C63.9,848.9 64.1,849.1 64.3,849.3C64.8,849.7 65.2,850.2 65.5,850.7C65.8,851.3 65.9,851.9 65.9,852.5C65.9,853 65.8,853.6 65.6,854.1C65.4,854.6 65.1,855 64.7,855.4C64.3,855.8 63.9,856 63.4,856.3C62.9,856.5 62.4,856.6 61.8,856.6C61.3,856.6 60.7,856.5 60.2,856.3C59.7,856.1 59.3,855.8 58.9,855.4C58.5,855 58.3,854.6 58,854.1C57.8,853.6 57.7,853.1 57.7,852.5C57.7,851.9 57.8,851.3 58.1,850.7C58.4,850.1 58.8,849.7 59.3,849.3C59.5,849.1 59.6,848.9 59.7,848.6C59.7,848.3 59.7,848.1 59.5,847.9C59.3,847.7 59.1,847.5 58.8,847.5C58.5,847.5 58.3,847.5 58.1,847.7C57.3,848.3 56.7,849 56.3,849.8C55.9,850.6 55.7,851.5 55.7,852.5C55.7,853.3 55.9,854.1 56.2,854.8C56.5,855.5 56.9,856.2 57.5,856.7C58,857.2 58.7,857.7 59.4,858C60.1,858.3 60.9,858.5 61.7,858.5C62.5,858.5 63.3,858.3 64,858C64.7,857.7 65.4,857.3 65.9,856.7C66.4,856.1 66.9,855.5 67.2,854.8C67.5,854.1 67.7,853.3 67.7,852.5C67.7,851.6 67.5,850.7 67.1,849.8C66.9,849 66.3,848.3 65.5,847.7ZM67.4,883.6L64.1,883.3C63.9,883.3 63.7,883.1 63.6,882.9L62.4,879.9C62.2,879.4 61.5,879.4 61.3,879.9L60.1,882.9C60,883.1 59.8,883.2 59.6,883.3L56.3,883.6C55.8,883.6 55.6,884.3 56,884.6L58.5,886.9C58.7,887 58.7,887.3 58.7,887.5L58,890.7C57.9,891.2 58.4,891.6 58.8,891.4L61.6,889.7C61.8,889.6 62,889.6 62.2,889.7L65,891.4C65.4,891.7 66,891.3 65.8,890.7L65.1,887.5C65.1,887.3 65.1,887.1 65.3,886.9L67.8,884.6C68.1,884.3 67.9,883.7 67.4,883.6Z" style="fill:rgb(83,83,87);fill-rule:nonzero;"/>
        </g>
    </g>
    <path d="M62.4,344.2C64.6,344.2 66.4,345.9 66.4,348.1C66.4,350.3 64.6,352 62.4,352C60.2,352 58.4,350.3 58.4,348.1C58.4,345.9 60.2,344.2 62.4,344.2M62.4,342.2C59.1,342.2 56.4,344.8 56.4,348.1C56.4,351.4 59.1,354 62.4,354C65.7,354 68.4,351.4 68.4,348.1C68.4,344.8 65.7,342.2 62.4,342.2Z" style="fill:rgb(83,83,87);fill-rule:nonzero;"/>
    <path d="M62.4,382.8C64.6,382.8 66.4,384.5 66.4,386.7C66.4,388.9 64.6,390.6 62.4,390.6C60.2,390.6 58.4,388.9 58.4,386.7C58.4,384.5 60.2,382.8 62.4,382.8M62.4,380.8C59.1,380.8 56.4,383.4 56.4,386.7C56.4,390 59.1,392.6 62.4,392.6C65.7,392.6 68.4,390 68.4,386.7C68.4,383.4 65.7,380.8 62.4,380.8Z" style="fill:rgb(83,83,87);fill-rule:nonzero;"/>
    <path d="M62.4,421.4C64.6,421.4 66.4,423.1 66.4,425.3C66.4,427.5 64.6,429.2 62.4,429.2C60.2,429.2 58.4,427.5 58.4,425.3C58.4,423.1 60.2,421.4 62.4,421.4M62.4,419.4C59.1,419.4 56.4,422 56.4,425.3C56.4,428.6 59.1,431.2 62.4,431.2C65.7,431.2 68.4,428.6 68.4,425.3C68.4,422 65.7,419.4 62.4,419.4Z" style="fill:rgb(83,83,87);fill-rule:nonzero;"/>
    <path d="M62.4,460C64.6,460 66.4,461.7 66.4,463.9C66.4,466.1 64.6,467.8 62.4,467.8C60.2,467.8 58.4,466.1 58.4,463.9C58.4,461.7 60.2,460 62.4,460M62.4,458C59.1,458 56.4,460.6 56.4,463.9C56.4,467.2 59.1,469.8 62.4,469.8C65.7,469.8 68.4,467.2 68.4,463.9C68.4,460.6 65.7,458 62.4,458Z" style="fill:rgb(83,83,87);fill-rule:nonzero;"/>
    <g>
        <ellipse cx="62.4" cy="193.6" rx="5" ry="4.9" style="fill:white;"/>
        <path d="M62.4,189.8C64.6,189.8 66.4,191.5 66.4,193.7C66.4,195.9 64.6,197.6 62.4,197.6C60.2,197.6 58.4,195.9 58.4,193.7C58.4,191.5 60.2,189.8 62.4,189.8M62.4,187.8C59.1,187.8 56.4,190.4 56.4,193.7C56.4,197 59.1,199.6 62.4,199.6C65.7,199.6 68.4,197 68.4,193.7C68.4,190.4 65.7,187.8 62.4,187.8Z" style="fill:white;fill-rule:nonzero;"/>
    </g>
    <path d="M62.4,228.4C64.6,228.4 66.4,230.1 66.4,232.3C66.4,234.5 64.6,236.2 62.4,236.2C60.2,236.2 58.4,234.5 58.4,232.3C58.4,230.1 60.2,228.4 62.4,228.4M62.4,226.4C59.1,226.4 56.4,229 56.4,232.3C56.4,235.5 59.1,238.2 62.4,238.2C65.7,238.2 68.4,235.6 68.4,232.3C68.4,229 65.7,226.4 62.4,226.4Z" style="fill:rgb(83,83,87);fill-rule:nonzero;"/>
    <path d="M62.4,267C64.6,267 66.4,268.7 66.4,270.9C66.4,273.1 64.6,274.8 62.4,274.8C60.2,274.8 58.4,273.1 58.4,270.9C58.4,268.7 60.2,267 62.4,267M62.4,265C59.1,265 56.4,267.6 56.4,270.9C56.4,274.2 59.1,276.8 62.4,276.8C65.7,276.8 68.4,274.2 68.4,270.9C68.4,267.6 65.7,265 62.4,265Z" style="fill:rgb(83,83,87);fill-rule:nonzero;"/>
    <path d="M62.4,305.6C64.6,305.6 66.4,307.3 66.4,309.5C66.4,311.7 64.6,313.4 62.4,313.4C60.2,313.4 58.4,311.7 58.4,309.5C58.4,307.3 60.2,305.6 62.4,305.6M62.4,303.6C59.1,303.6 56.4,306.2 56.4,309.5C56.4,312.8 59.1,315.4 62.4,315.4C65.7,315.4 68.4,312.8 68.4,309.5C68.4,306.2 65.7,303.6 62.4,303.6Z" style="fill:rgb(83,83,87);fill-rule:nonzero;"/>
    <path d="M62.4,498.6C64.6,498.6 66.4,500.3 66.4,502.5C66.4,504.7 64.6,506.4 62.4,506.4C60.2,506.4 58.4,504.7 58.4,502.5C58.4,500.3 60.2,498.6 62.4,498.6M62.4,496.6C59.1,496.6 56.4,499.2 56.4,502.5C56.4,505.8 59.1,508.4 62.4,508.4C65.7,508.4 68.4,505.8 68.4,502.5C68.4,499.2 65.7,496.6 62.4,496.6Z" style="fill:rgb(83,83,87);fill-rule:nonzero;"/>
    <path d="M62.4,537.2C64.6,537.2 66.4,538.9 66.4,541.1C66.4,543.3 64.6,545 62.4,545C60.2,545 58.4,543.3 58.4,541.1C58.4,538.9 60.2,537.2 62.4,537.2M62.4,535.2C59.1,535.2 56.4,537.8 56.4,541.1C56.4,544.4 59.1,547 62.4,547C65.7,547 68.4,544.4 68.4,541.1C68.4,537.8 65.7,535.2 62.4,535.2Z" style="fill:rgb(83,83,87);fill-rule:nonzero;"/>
    <path d="M62.4,575.8C64.6,575.8 66.4,577.5 66.4,579.7C66.4,581.8 64.6,583.6 62.4,583.6C60.2,583.6 58.4,581.9 58.4,579.7C58.5,577.5 60.2,575.8 62.4,575.8M62.4,573.8C59.1,573.8 56.4,576.4 56.4,579.7C56.4,583 59.1,585.6 62.4,585.6C65.7,585.6 68.4,583 68.4,579.7C68.4,576.4 65.7,573.8 62.4,573.8Z" style="fill:rgb(83,83,87);fill-rule:nonzero;"/>
    <path d="M62.4,614.4C64.6,614.4 66.4,616.1 66.4,618.3C66.4,620.4 64.6,622.2 62.4,622.2C60.2,622.2 58.4,620.5 58.4,618.3C58.5,616.2 60.2,614.4 62.4,614.4M62.4,612.4C59.1,612.4 56.4,615 56.4,618.3C56.4,621.5 59.1,624.2 62.4,624.2C65.7,624.2 68.4,621.6 68.4,618.3C68.4,615 65.7,612.4 62.4,612.4Z" style="fill:rgb(83,83,87);fill-rule:nonzero;"/>
    <path d="M62.4,653C64.6,653 66.4,654.7 66.4,656.9C66.4,659 64.6,660.8 62.4,660.8C60.2,660.8 58.4,659.1 58.4,656.9C58.5,654.8 60.2,653 62.4,653M62.4,651C59.1,651 56.4,653.6 56.4,656.9C56.4,660.2 59.1,662.8 62.4,662.8C65.7,662.8 68.4,660.2 68.4,656.9C68.4,653.6 65.7,651 62.4,651Z" style="fill:rgb(83,83,87);fill-rule:nonzero;"/>
    <path d="M62.4,691.6C64.6,691.6 66.4,693.3 66.4,695.5C66.4,697.6 64.6,699.4 62.4,699.4C60.2,699.4 58.4,697.7 58.4,695.5C58.5,693.4 60.2,691.6 62.4,691.6M62.4,689.6C59.1,689.6 56.4,692.2 56.4,695.5C56.4,698.8 59.1,701.4 62.4,701.4C65.7,701.4 68.4,698.8 68.4,695.5C68.4,692.2 65.7,689.6 62.4,689.6Z" style="fill:rgb(83,83,87);fill-rule:nonzero;"/>
    <path d="M62.4,730.2C64.6,730.2 66.4,731.9 66.4,734.1C66.4,736.2 64.6,738 62.4,738C60.2,738 58.4,736.3 58.4,734.1C58.5,732 60.2,730.2 62.4,730.2M62.4,728.2C59.1,728.2 56.4,730.8 56.4,734.1C56.4,737.4 59.1,740 62.4,740C65.7,740 68.4,737.4 68.4,734.1C68.4,730.8 65.7,728.2 62.4,728.2Z" style="fill:rgb(83,83,87);fill-rule:nonzero;"/>
    <path d="M62.4,768.8C64.6,768.8 66.4,770.5 66.4,772.7C66.4,774.8 64.6,776.6 62.4,776.6C60.2,776.6 58.4,774.9 58.4,772.7C58.5,770.6 60.2,768.8 62.4,768.8M62.4,766.8C59.1,766.8 56.4,769.4 56.4,772.7C56.4,776 59.1,778.6 62.4,778.6C65.7,778.6 68.4,776 68.4,772.7C68.4,769.4 65.7,766.8 62.4,766.8Z" style="fill:rgb(83,83,87);fill-rule:nonzero;"/>
</svg>
