<?xml version="1.0" encoding="UTF-8" standalone="no"?><!-- Generator: Gravit.io --><svg xmlns="http://www.w3.org/2000/svg" xmlns:xlink="http://www.w3.org/1999/xlink" style="isolation:isolate" viewBox="0 0 841.89 85.039" width="841.89pt" height="85.039pt"><defs><clipPath id="_clipPath_C7g9V1WtpCLIkqmGcsFczMlGzbmRtMiv"><rect width="841.89" height="85.039"/></clipPath></defs><g clip-path="url(#_clipPath_C7g9V1WtpCLIkqmGcsFczMlGzbmRtMiv)"><path d=" M 270.442 52.258 L 270.699 66.335 L 327.034 66.335 C 327.571 66.335 328.007 65.899 328.007 65.363 L 328.007 53.229 C 328.007 52.693 327.571 52.258 327.034 52.258 L 270.442 52.258 L 270.442 52.258 Z  M 0 85.039 L 44.289 8.055 Q 49.871 0 60.012 0 Q 70.154 0 75.755 8.099 L 109.207 66.335 L 132.774 66.335 L 132.774 1.543 L 155.894 1.543 C 160.192 1.543 165.945 4.194 168.733 7.46 L 212.129 58.299 C 212.826 59.115 213.391 58.907 213.391 57.835 L 213.391 1.543 Q 282.423 1.543 328.007 1.543 C 335.155 1.543 351.188 6.878 351.188 20.247 Q 351.188 24.104 351.188 33.553 C 351.188 39.691 350.802 39.29 347.26 42.825 C 350.292 45.851 351.188 50.651 351.188 52.258 Q 351.188 59.457 351.188 66.335 C 351.188 73.212 344.427 85.039 328.007 85.039 Q 296.646 85.039 247.647 85.039 L 247.647 33.553 L 327.034 33.553 C 327.571 33.553 328.007 33.118 328.007 32.581 L 328.007 21.219 C 328.007 20.683 327.571 20.247 327.034 20.247 L 236.443 20.247 L 236.443 85.039 L 212.438 85.039 C 208.14 85.039 202.417 82.363 199.666 79.066 L 156.212 26.997 L 156.212 85.039 L 36.316 85.039 L 48.036 66.335 L 83.837 66.335 L 61.969 28.782 C 60.889 26.928 59.12 26.919 58.021 28.762 L 24.469 85.039 L 0 85.039 L 0 85.039 Z  M 620.439 85.039 L 620.439 26.997 L 663.892 79.066 C 666.643 82.363 672.366 85.039 676.664 85.039 L 700.67 85.039 L 700.67 20.247 L 713.108 20.247 L 713.108 85.039 L 736.289 85.039 L 736.289 1.543 L 677.618 1.543 L 677.618 57.835 C 677.618 58.907 677.052 59.115 676.355 58.299 L 632.959 7.46 C 630.171 4.194 624.418 1.543 620.12 1.543 L 597 1.543 L 597 66.335 L 582.565 66.366 Q 580.591 47.705 576.218 43.339 C 578.681 40.881 580.196 39.772 580.196 33.553 L 580.196 15.716 C 580.196 7.893 573.846 1.543 566.023 1.543 L 382.119 1.543 C 371.374 1.543 362.65 10.251 362.65 20.978 L 362.65 65.604 C 362.65 76.331 371.374 85.039 382.119 85.039 L 466.019 85.039 L 466.019 66.335 L 386.804 66.335 C 386.267 66.335 385.83 65.899 385.83 65.363 L 385.83 52.258 L 466.019 52.258 L 466.019 33.553 L 385.83 33.553 L 385.83 21.219 C 385.83 20.683 386.267 20.247 386.804 20.247 L 556.394 20.247 C 556.932 20.247 557.368 20.683 557.368 21.219 L 557.368 33.553 L 479.068 33.553 L 479.068 85.039 L 501.734 85.039 L 501.734 52.258 L 555.421 52.258 C 556.495 52.258 557.529 53.114 557.728 54.168 L 563.549 85.039 L 620.439 85.039 L 620.439 85.039 Z  M 841.89 1.543 L 768.788 1.543 C 758.043 1.543 749.319 10.251 749.319 20.978 L 749.319 65.604 C 749.319 76.331 758.043 85.039 768.788 85.039 L 841.89 85.039 L 841.89 66.335 L 773.473 66.335 C 772.936 66.335 772.5 65.899 772.5 65.363 L 772.5 21.219 C 772.5 20.683 772.936 20.247 773.473 20.247 L 841.89 20.247 L 841.89 1.543 L 841.89 1.543 Z " fill-rule="evenodd" fill="rgb(238,0,0)"/></g></svg>