<svg width="72" height="72" viewBox="0 0 72 72" fill="none" xmlns="http://www.w3.org/2000/svg">
<g clip-path="url(#clip0_2_21)">
<path fill-rule="evenodd" clip-rule="evenodd" d="M45 12H50.01C52.2 12 54 13.8 54 15.99V62.01C54 63.0682 53.5796 64.0831 52.8314 64.8314C52.0831 65.5796 51.0682 66 50.01 66H21.99C19.8 66 18 64.2 18 62.01V15.99C18 14.9318 18.4204 13.9169 19.1686 13.1686C19.9169 12.4204 20.9318 12 21.99 12H27V6H45V12ZM37.6784 35.7652L43.3321 39.042C43.511 39.1464 43.6632 39.291 43.7766 39.4643C43.89 39.6376 43.9616 39.8349 43.9856 40.0406C44.0097 40.2463 43.9855 40.4548 43.9152 40.6496C43.8448 40.8444 43.7301 41.0202 43.5801 41.163L33.5817 50.6308C33.3604 50.8424 33.0729 50.9713 32.7676 50.9958C32.4623 51.0202 32.1579 50.9386 31.9057 50.7649C31.6535 50.5911 31.4689 50.3358 31.383 50.0418C31.2971 49.7478 31.3152 49.4332 31.4341 49.151L34.3176 42.2322L28.6626 38.9527C28.4835 38.8482 28.3313 38.7035 28.2178 38.53C28.1044 38.3566 28.0329 38.1591 28.0089 37.9532C27.985 37.7473 28.0093 37.5386 28.08 37.3438C28.1506 37.1489 28.2656 36.9731 28.4159 36.8304L38.4143 27.3653L38.5076 27.2853C38.7441 27.0998 39.0362 26.9993 39.3368 27C39.563 27.0015 39.7851 27.0604 39.9823 27.1712C40.1796 27.2819 40.3455 27.4409 40.4645 27.6332C40.5836 27.8256 40.6519 28.0449 40.6632 28.2709C40.6744 28.4968 40.6281 28.7219 40.5286 28.925L37.6784 35.7652Z" fill="white"/>
</g>
<defs>
<clipPath id="clip0_2_21">
<rect width="72" height="72" fill="white"/>
</clipPath>
</defs>
</svg>
