<svg width="72" height="72" viewBox="0 0 72 72" fill="none" xmlns="http://www.w3.org/2000/svg">
<g clip-path="url(#clip0_2_28)">
<path d="M12.6665 30.6661C25.5492 17.7807 46.4485 17.771 59.4302 30.6729C60.6054 31.8408 62.5049 31.835 63.6728 30.6598C64.8408 29.4846 64.8349 27.5851 63.6598 26.4172C48.3454 11.197 23.6568 11.1873 8.42344 26.4239C7.25199 27.5956 7.25219 29.4951 8.42389 30.6666C9.59559 31.838 11.4951 31.8378 12.6665 30.6661Z" fill="white"/>
<path d="M27.9634 34.5978C30.5113 33.5423 33.2421 32.9991 36 32.9991C38.7578 32.9991 41.4887 33.5423 44.0366 34.5978C46.5845 35.6532 48.8996 37.2001 50.8496 39.1503C52.0212 40.3219 53.9207 40.3219 55.0923 39.1504C56.2639 37.9788 56.2639 36.0793 55.0924 34.9077C52.5852 32.4004 49.6087 30.4115 46.3328 29.0545C43.0569 27.6976 39.5458 26.9991 36 26.9991C32.4542 26.9991 28.9431 27.6976 25.6672 29.0545C22.3913 30.4115 19.4148 32.4004 16.9076 34.9077C15.7361 36.0793 15.7361 37.9788 16.9077 39.1504C18.0793 40.3219 19.9788 40.3219 21.1504 39.1503C23.1004 37.2001 25.4155 35.6532 27.9634 34.5978Z" fill="white"/>
<path d="M29.637 47.6376C31.3247 45.9504 33.6135 45.0026 36 45.0026C38.3865 45.0026 40.6752 45.9504 42.363 47.6376C43.5347 48.809 45.4342 48.8088 46.6056 47.637C47.777 46.4653 47.7767 44.5658 46.605 43.3944C43.7921 40.5823 39.9775 39.0026 36 39.0026C32.0225 39.0026 28.2079 40.5823 25.395 43.3944C24.2232 44.5658 24.223 46.4653 25.3944 47.637C26.5657 48.8088 28.4652 48.809 29.637 47.6376Z" fill="white"/>
<path d="M36 51C34.3431 51 33 52.3432 33 54C33 55.6569 34.3431 57 36 57H36.03C37.6868 57 39.03 55.6569 39.03 54C39.03 52.3432 37.6868 51 36.03 51H36Z" fill="white"/>
</g>
<defs>
<clipPath id="clip0_2_28">
<rect width="72" height="72" fill="white"/>
</clipPath>
</defs>
</svg>
